<?xml version="1.0" encoding="UTF-8"?>
<svg xmlns="http://www.w3.org/2000/svg" viewBox="0 0 636 638" width="636" height="638">
  <path d="M287 90 L286 91 L285 91 L284 91 L283 91 L282 91 L281 91 L280 91 L279 91 L278 92 L277 92 L276 92 L275 92 L274 92 L273 93 L272 93 L271 93 L270 94 L269 94 L268 94 L267 95 L266 95 L265 95 L264 96 L263 96 L262 97 L261 97 L260 98 L259 98 L258 99 L257 99 L256 100 L255 100 L254 101 L253 102 L252 102 L251 103 L250 104 L249 104 L248 105 L247 106 L246 107 L245 108 L244 109 L243 110 L242 111 L241 112 L240 113 L239 114 L238 115 L237 116 L236 117 L236 118 L235 119 L234 120 L234 121 L233 122 L232 123 L232 124 L231 125 L231 126 L230 127 L229 128 L229 129 L228 130 L228 131 L228 132 L227 133 L227 134 L226 135 L226 136 L225 137 L225 138 L224 139 L224 140 L223 141 L223 142 L222 143 L222 144 L221 145 L221 146 L220 147 L220 148 L219 149 L219 150 L219 151 L218 152 L218 153 L217 154 L217 155 L216 156 L216 157 L215 158 L215 159 L214 160 L214 161 L213 162 L213 163 L212 164 L212 165 L212 166 L211 167 L211 168 L210 169 L210 170 L209 171 L209 172 L208 173 L208 174 L207 175 L207 176 L206 177 L206 178 L205 179 L205 180 L204 181 L204 182 L204 183 L203 184 L203 185 L202 186 L202 187 L201 188 L201 189 L200 190 L200 191 L199 192 L199 193 L198 194 L198 195 L197 196 L197 197 L197 198 L196 199 L196 200 L195 201 L195 202 L194 203 L194 204 L193 205 L193 206 L192 207 L192 208 L191 209 L191 210 L190 211 L190 212 L189 213 L189 214 L189 215 L188 216 L188 217 L187 218 L187 219 L186 220 L186 221 L185 222 L185 223 L184 224 L184 225 L183 226 L183 227 L182 228 L182 229 L181 230 L181 231 L180 232 L180 233 L180 234 L179 235 L179 236 L178 237 L178 238 L177 239 L177 240 L176 241 L176 242 L175 243 L175 244 L174 245 L174 246 L173 247 L173 248 L172 249 L172 250 L172 251 L171 252 L171 253 L170 254 L170 255 L169 256 L169 257 L168 258 L168 259 L167 260 L167 261 L166 262 L166 263 L165 264 L165 265 L164 266 L164 267 L164 268 L163 269 L163 270 L162 271 L162 272 L161 273 L161 274 L160 275 L160 276 L159 277 L159 278 L158 279 L158 280 L157 281 L157 282 L156 283 L156 284 L156 285 L155 286 L155 287 L154 288 L154 289 L153 290 L153 291 L152 292 L152 293 L151 294 L151 295 L150 296 L150 297 L149 298 L149 299 L148 300 L148 301 L148 302 L147 303 L147 304 L146 305 L146 306 L145 307 L145 308 L144 309 L144 310 L143 311 L143 312 L142 313 L142 314 L141 315 L141 316 L140 317 L140 318 L140 319 L139 320 L139 321 L138 322 L138 323 L137 324 L137 325 L136 326 L136 327 L135 328 L135 329 L134 330 L134 331 L133 332 L133 333 L132 334 L132 335 L132 336 L131 337 L131 338 L130 339 L130 340 L129 341 L129 342 L128 343 L128 344 L127 345 L127 346 L126 347 L126 348 L125 349 L125 350 L124 351 L124 352 L124 353 L123 354 L123 355 L122 356 L122 357 L121 358 L121 359 L120 360 L120 361 L119 362 L119 363 L118 364 L118 365 L117 366 L117 367 L116 368 L116 369 L116 370 L115 371 L115 372 L114 373 L114 374 L113 375 L113 376 L112 377 L112 378 L111 379 L111 380 L110 381 L110 382 L109 383 L109 384 L109 385 L108 386 L108 387 L107 388 L107 389 L106 390 L106 391 L105 392 L105 393 L104 394 L104 395 L103 396 L103 397 L102 398 L102 399 L101 400 L101 401 L100 402 L100 403 L100 404 L99 405 L99 406 L98 407 L98 408 L97 409 L97 410 L96 411 L96 412 L95 413 L95 414 L94 415 L94 416 L93 417 L93 418 L92 419 L92 420 L92 421 L91 422 L91 423 L90 424 L90 425 L89 426 L89 427 L88 428 L88 429 L87 430 L87 431 L86 432 L86 433 L85 434 L85 435 L84 436 L84 437 L84 438 L83 439 L83 440 L82 441 L82 442 L81 443 L81 444 L80 445 L80 446 L79 447 L79 448 L78 449 L78 450 L77 451 L77 452 L76 453 L76 454 L76 455 L75 456 L75 457 L74 458 L74 459 L73 460 L73 461 L73 462 L72 463 L72 464 L72 465 L72 466 L71 467 L71 468 L71 469 L71 470 L70 471 L70 472 L70 473 L70 474 L70 475 L70 476 L70 477 L70 478 L70 479 L70 480 L70 481 L70 482 L70 483 L70 484 L70 485 L70 486 L70 487 L70 488 L70 489 L71 490 L71 491 L71 492 L71 493 L72 494 L72 495 L72 496 L72 497 L73 498 L73 499 L73 500 L74 501 L74 502 L75 503 L75 504 L76 505 L76 506 L77 507 L77 508 L78 509 L79 510 L79 511 L80 512 L81 513 L81 514 L82 515 L83 516 L84 517 L85 518 L86 519 L87 520 L88 521 L89 522 L90 523 L91 524 L92 525 L93 525 L94 526 L95 527 L96 528 L97 528 L98 529 L99 529 L100 530 L101 530 L102 531 L103 531 L104 532 L105 532 L106 533 L107 533 L108 534 L109 534 L110 534 L111 535 L112 535 L113 535 L114 535 L115 536 L116 536 L117 536 L118 536 L119 536 L120 537 L121 537 L122 537 L123 537 L124 537 L125 537 L126 537 L127 537 L128 537 L129 537 L130 537 L131 537 L132 537 L133 537 L134 537 L135 537 L136 536 L137 536 L138 536 L139 536 L140 536 L141 535 L142 535 L143 535 L144 535 L145 534 L146 534 L147 534 L148 533 L149 533 L150 532 L151 532 L152 531 L153 531 L154 530 L155 530 L156 529 L157 529 L158 528 L159 527 L160 527 L161 526 L162 525 L163 524 L164 523 L165 523 L165 522 L166 521 L167 520 L168 519 L169 518 L169 517 L170 516 L171 515 L172 514 L173 513 L173 512 L174 511 L175 510 L176 509 L177 508 L177 507 L178 506 L179 505 L180 504 L181 503 L182 502 L183 501 L183 500 L184 499 L185 498 L186 497 L187 496 L188 495 L189 494 L189 493 L190 492 L191 491 L192 490 L193 489 L194 488 L195 487 L196 486 L196 485 L197 484 L198 483 L199 482 L200 481 L201 480 L202 479 L203 478 L204 477 L205 476 L205 475 L206 474 L207 473 L208 472 L209 471 L210 470 L211 469 L212 468 L213 467 L214 466 L215 465 L216 464 L217 463 L218 462 L218 461 L219 460 L220 459 L221 458 L222 457 L223 456 L224 455 L225 454 L226 453 L227 452 L228 451 L229 450 L230 449 L231 448 L232 447 L233 446 L234 445 L235 444 L236 443 L237 442 L238 441 L239 440 L240 439 L241 438 L242 437 L243 436 L244 435 L245 434 L246 433 L247 432 L248 431 L249 430 L250 429 L251 428 L252 427 L253 426 L254 425 L255 424 L256 423 L257 422 L258 422 L259 421 L260 420 L261 419 L262 418 L263 417 L264 416 L265 415 L266 414 L267 413 L268 412 L269 411 L270 410 L271 409 L272 409 L273 408 L274 407 L275 406 L276 405 L277 404 L278 403 L279 402 L280 401 L281 400 L282 400 L283 399 L284 398 L285 397 L286 396 L287 395 L288 394 L289 393 L290 393 L291 392 L292 391 L293 390 L294 389 L295 388 L296 387 L297 387 L298 386 L299 385 L300 384 L301 383 L302 382 L303 382 L304 381 L305 380 L306 379 L307 378 L308 377 L309 377 L310 376 L311 375 L312 374 L313 373 L314 373 L315 372 L316 371 L317 370 L318 369 L319 369 L320 368 L321 367 L322 366 L323 365 L324 365 L325 364 L326 363 L327 362 L328 361 L329 361 L330 360 L331 359 L332 358 L333 358 L334 357 L335 356 L336 355 L337 355 L338 354 L339 353 L340 352 L341 352 L342 351 L343 350 L344 349 L345 349 L346 348 L347 347 L348 347 L349 346 L350 345 L351 345 L352 344 L353 343 L354 342 L355 342 L356 341 L357 340 L358 340 L359 339 L360 338 L361 337 L362 337 L363 336 L364 335 L365 335 L366 334 L367 333 L368 333 L369 332 L370 331 L371 331 L372 330 L373 329 L374 329 L375 328 L376 327 L377 327 L378 326 L379 325 L380 325 L381 324 L382 324 L383 323 L384 322 L385 322 L386 321 L387 320 L388 320 L389 319 L390 319 L391 318 L392 317 L393 317 L394 316 L395 316 L396 315 L397 314 L398 314 L399 313 L400 313 L401 312 L402 311 L403 311 L404 310 L405 310 L406 309 L407 308 L408 308 L409 307 L410 307 L411 306 L412 306 L413 305 L414 305 L415 304 L416 303 L417 303 L418 302 L419 302 L420 301 L421 301 L422 300 L423 300 L424 299 L425 299 L426 298 L427 298 L428 297 L429 296 L430 296 L431 295 L432 295 L433 294 L434 294 L435 293 L436 293 L437 292 L438 292 L439 291 L440 291 L441 290 L442 290 L443 290 L444 289 L445 289 L446 288 L447 288 L448 287 L449 287 L450 286 L451 286 L452 285 L453 285 L454 284 L455 284 L456 283 L457 283 L458 283 L459 282 L460 282 L461 281 L462 281 L463 280 L464 280 L465 280 L466 279 L467 279 L468 278 L469 278 L470 278 L471 277 L472 277 L473 276 L474 276 L475 276 L476 275 L477 275 L478 274 L479 274 L480 274 L481 273 L482 273 L483 272 L484 272 L485 272 L486 271 L487 271 L488 271 L489 270 L490 270 L491 270 L492 269 L493 269 L494 269 L495 268 L496 268 L497 268 L498 267 L499 267 L500 267 L501 266 L502 266 L503 266 L504 265 L505 265 L506 265 L507 264 L508 264 L509 264 L510 263 L511 263 L512 263 L513 263 L514 262 L515 262 L516 262 L517 261 L518 261 L519 261 L520 261 L521 260 L522 260 L523 260 L524 260 L525 259 L526 259 L527 259 L528 259 L529 258 L530 258 L531 258 L532 258 L533 257 L534 257 L535 257 L536 257 L537 256 L538 256 L539 256 L538 255 L537 255 L536 255 L535 255 L534 254 L533 254 L532 254 L531 254 L530 253 L529 253 L528 253 L527 252 L526 252 L525 252 L524 252 L523 251 L522 251 L521 251 L520 251 L519 251 L518 250 L517 250 L516 250 L515 250 L514 249 L513 249 L512 249 L511 249 L510 248 L509 248 L508 248 L507 248 L506 248 L505 248 L504 247 L503 247 L502 247 L501 247 L500 247 L499 246 L498 246 L497 246 L496 246 L495 246 L494 246 L493 245 L492 245 L491 245 L490 245 L489 245 L488 245 L487 245 L486 244 L485 244 L484 244 L483 244 L482 244 L481 244 L480 244 L479 244 L478 244 L477 243 L476 243 L475 243 L474 243 L473 243 L472 243 L471 243 L470 243 L469 243 L468 243 L467 242 L466 242 L465 242 L464 242 L463 242 L462 242 L461 242 L460 242 L459 242 L458 242 L457 242 L456 242 L455 242 L454 242 L453 242 L452 242 L451 242 L450 242 L449 242 L448 242 L447 242 L446 242 L445 242 L444 242 L443 242 L442 242 L441 242 L440 242 L439 242 L438 242 L437 242 L436 242 L435 242 L434 242 L433 242 L432 242 L431 242 L430 242 L429 242 L428 242 L427 242 L426 242 L425 242 L424 242 L423 242 L422 242 L421 242 L420 242 L419 242 L418 243 L417 243 L416 243 L415 243 L414 243 L413 243 L412 243 L411 243 L410 243 L409 243 L408 243 L407 242 L407 241 L407 240 L406 239 L406 238 L405 237 L405 236 L404 235 L404 234 L403 233 L403 232 L402 231 L402 230 L401 229 L401 228 L400 227 L400 226 L400 225 L399 224 L399 223 L398 222 L398 221 L397 220 L397 219 L396 218 L396 217 L395 216 L395 215 L394 214 L394 213 L393 212 L393 211 L393 210 L392 209 L392 208 L391 207 L391 206 L390 205 L390 204 L389 203 L389 202 L388 201 L388 200 L387 199 L387 198 L386 197 L386 196 L385 195 L385 194 L385 193 L384 192 L384 191 L383 190 L383 189 L382 188 L382 187 L381 186 L381 185 L380 184 L380 183 L379 182 L379 181 L378 180 L378 179 L377 178 L377 177 L377 176 L376 175 L376 174 L375 173 L375 172 L374 171 L374 170 L373 169 L373 168 L372 167 L372 166 L371 165 L371 164 L370 163 L370 162 L370 161 L369 160 L369 159 L368 158 L368 157 L367 156 L367 155 L366 154 L366 153 L365 152 L365 151 L364 150 L364 149 L363 148 L363 147 L362 146 L362 145 L362 144 L361 143 L361 142 L360 141 L360 140 L359 139 L359 138 L358 137 L358 136 L357 135 L357 134 L356 133 L356 132 L355 131 L355 130 L354 129 L354 128 L353 127 L353 126 L352 125 L352 124 L351 123 L350 122 L350 121 L349 120 L348 119 L348 118 L347 117 L346 116 L345 115 L345 114 L344 113 L343 112 L342 111 L341 110 L340 109 L339 108 L338 107 L337 107 L336 106 L335 105 L334 104 L333 103 L332 103 L331 102 L330 101 L329 101 L328 100 L327 100 L326 99 L325 98 L324 98 L323 97 L322 97 L321 96 L320 96 L319 96 L318 95 L317 95 L316 95 L315 94 L314 94 L313 93 L312 93 L311 93 L310 93 L309 92 L308 92 L307 92 L306 92 L305 91 L304 91 L303 91 L302 91 L301 91 L300 91 L299 91 L298 91 L297 90 L296 90 L295 90 L294 90 L293 90 L292 90 L291 90 L290 90 L289 90 L288 90 Z" fill="#D61C1C" stroke="none"/>
  <path d="M444 324 L443 325 L442 325 L441 326 L440 326 L439 327 L438 327 L437 328 L436 328 L435 329 L434 329 L433 330 L432 330 L431 331 L430 332 L429 332 L428 333 L427 333 L426 334 L425 335 L424 335 L423 336 L422 336 L421 337 L420 338 L419 338 L418 339 L417 340 L416 340 L415 341 L414 342 L413 342 L412 343 L411 344 L410 345 L409 345 L408 346 L407 347 L406 347 L405 348 L404 349 L403 350 L402 350 L401 351 L400 352 L399 353 L398 353 L397 354 L396 355 L395 356 L394 357 L393 357 L392 358 L391 359 L390 360 L389 361 L388 362 L387 362 L386 363 L385 364 L384 365 L383 366 L382 367 L381 368 L380 368 L379 369 L378 370 L377 371 L376 372 L375 373 L374 374 L373 375 L372 376 L371 377 L370 378 L369 378 L368 379 L367 380 L366 381 L365 382 L364 383 L363 384 L362 385 L361 386 L360 387 L359 388 L358 389 L357 390 L356 391 L355 392 L354 393 L353 394 L352 395 L351 396 L351 397 L350 398 L349 399 L348 400 L347 401 L346 402 L345 403 L344 404 L343 405 L342 406 L341 407 L340 408 L340 409 L339 410 L338 411 L337 412 L336 413 L335 414 L334 415 L334 416 L333 417 L332 418 L331 419 L330 420 L329 421 L329 422 L328 423 L327 424 L326 425 L325 426 L324 427 L324 428 L323 429 L322 430 L321 431 L321 432 L320 433 L319 434 L318 435 L318 436 L317 437 L316 438 L315 439 L314 440 L314 441 L313 442 L312 443 L312 444 L311 445 L310 446 L309 447 L309 448 L308 449 L307 450 L306 451 L306 452 L305 453 L304 454 L304 455 L303 456 L302 457 L302 458 L301 459 L300 460 L300 461 L299 462 L298 463 L298 464 L297 465 L296 466 L296 467 L295 468 L294 469 L294 470 L293 471 L292 472 L292 473 L291 474 L291 475 L290 476 L289 477 L289 478 L288 479 L287 480 L287 481 L286 482 L286 483 L285 484 L284 485 L284 486 L283 487 L283 488 L282 489 L281 490 L281 491 L280 492 L280 493 L279 494 L279 495 L278 496 L278 497 L277 498 L276 499 L276 500 L275 501 L275 502 L274 503 L274 504 L273 505 L273 506 L272 507 L272 508 L271 509 L271 510 L270 511 L269 512 L269 513 L268 514 L268 515 L267 516 L267 517 L266 518 L266 519 L265 520 L265 521 L265 522 L264 523 L264 524 L263 525 L263 526 L262 527 L262 528 L261 529 L261 530 L260 531 L260 532 L259 533 L259 534 L258 535 L258 536 L258 537 L257 538 L257 539 L256 540 L256 541 L255 542 L255 543 L255 544 L254 545 L254 546 L253 547 L253 548 L252 549 L252 550 L252 551 L251 552 L251 553 L250 554 L250 555 L250 556 L249 557 L249 558 L249 559 L248 560 L248 561 L247 562 L247 563 L247 564 L246 565 L246 566 L246 567 L245 568 L245 569 L244 570 L244 571 L244 572 L243 573 L243 574 L243 575 L242 576 L242 577 L242 578 L241 579 L241 580 L241 581 L240 582 L240 583 L240 584 L240 585 L239 586 L239 587 L239 588 L238 589 L238 590 L238 591 L237 592 L237 593 L237 594 L236 595 L236 596 L236 597 L236 598 L235 599 L235 600 L235 601 L235 602 L234 603 L234 604 L234 605 L233 606 L233 607 L233 608 L233 609 L234 608 L234 607 L235 606 L236 605 L236 604 L237 603 L237 602 L238 601 L239 600 L239 599 L240 598 L241 597 L241 596 L242 595 L243 594 L243 593 L244 592 L245 591 L245 590 L246 589 L247 588 L247 587 L248 586 L249 585 L249 584 L250 583 L251 582 L252 581 L252 580 L253 579 L254 578 L254 577 L255 576 L256 575 L257 574 L257 573 L258 572 L259 571 L260 570 L260 569 L261 568 L262 567 L263 566 L263 565 L264 564 L265 563 L266 562 L267 561 L267 560 L268 559 L269 558 L270 557 L271 556 L271 555 L272 554 L273 553 L274 552 L275 551 L276 550 L276 549 L277 548 L278 547 L279 546 L280 545 L281 544 L282 543 L282 542 L283 541 L284 540 L285 539 L286 538 L287 537 L288 536 L289 535 L290 534 L291 533 L292 532 L293 531 L294 530 L294 529 L295 528 L296 527 L297 526 L298 525 L299 524 L300 523 L301 522 L302 521 L303 520 L304 519 L305 518 L306 517 L307 516 L308 515 L309 514 L310 513 L311 513 L312 512 L313 511 L314 510 L315 509 L316 508 L317 507 L318 506 L319 505 L320 504 L321 503 L322 502 L323 502 L324 501 L325 500 L326 499 L327 498 L328 497 L329 496 L330 496 L331 495 L332 494 L333 493 L334 492 L335 491 L336 491 L337 490 L338 489 L339 488 L340 487 L341 487 L342 486 L343 485 L344 485 L345 485 L346 486 L347 487 L348 487 L349 488 L350 488 L351 489 L352 490 L353 490 L354 491 L355 491 L356 492 L357 492 L358 493 L359 494 L360 494 L361 495 L362 495 L363 496 L364 497 L365 497 L366 498 L367 498 L368 499 L369 500 L370 500 L371 501 L372 501 L373 502 L374 502 L375 503 L376 504 L377 504 L378 505 L379 505 L380 506 L381 507 L382 507 L383 508 L384 508 L385 509 L386 509 L387 510 L388 511 L389 511 L390 512 L391 512 L392 513 L393 514 L394 514 L395 515 L396 515 L397 516 L398 517 L399 517 L400 518 L401 518 L402 519 L403 520 L404 520 L405 521 L406 521 L407 522 L408 522 L409 523 L410 524 L411 524 L412 525 L413 525 L414 526 L415 527 L416 527 L417 528 L418 528 L419 529 L420 530 L421 530 L422 531 L423 531 L424 532 L425 532 L426 533 L427 534 L428 534 L429 535 L430 535 L431 536 L432 536 L433 536 L434 537 L435 537 L436 538 L437 538 L438 538 L439 539 L440 539 L441 539 L442 539 L443 540 L444 540 L445 540 L446 540 L447 540 L448 541 L449 541 L450 541 L451 541 L452 541 L453 541 L454 541 L455 541 L456 541 L457 541 L458 541 L459 541 L460 541 L461 541 L462 541 L463 540 L464 540 L465 540 L466 540 L467 540 L468 540 L469 539 L470 539 L471 539 L472 538 L473 538 L474 538 L475 537 L476 537 L477 537 L478 536 L479 536 L480 535 L481 535 L482 534 L483 534 L484 533 L485 533 L486 532 L487 532 L488 531 L489 530 L490 529 L491 529 L492 528 L493 527 L494 526 L495 525 L496 524 L497 523 L498 522 L499 521 L500 520 L501 519 L502 518 L503 517 L503 516 L504 515 L505 514 L505 513 L506 512 L507 511 L507 510 L508 509 L508 508 L509 507 L509 506 L510 505 L510 504 L510 503 L511 502 L511 501 L511 500 L512 499 L512 498 L512 497 L513 496 L513 495 L513 494 L513 493 L514 492 L514 491 L514 490 L514 489 L514 488 L514 487 L514 486 L514 485 L514 484 L514 483 L514 482 L514 481 L514 480 L514 479 L514 478 L514 477 L514 476 L514 475 L514 474 L514 473 L514 472 L513 471 L513 470 L513 469 L513 468 L512 467 L512 466 L512 465 L511 464 L511 463 L511 462 L510 461 L510 460 L510 459 L509 458 L509 457 L508 456 L508 455 L507 454 L507 453 L506 452 L506 451 L505 450 L505 449 L504 448 L504 447 L504 446 L503 445 L503 444 L502 443 L502 442 L501 441 L501 440 L500 439 L500 438 L499 437 L499 436 L498 435 L498 434 L497 433 L497 432 L497 431 L496 430 L496 429 L495 428 L495 427 L494 426 L494 425 L493 424 L493 423 L492 422 L492 421 L491 420 L491 419 L490 418 L490 417 L489 416 L489 415 L489 414 L488 413 L488 412 L487 411 L487 410 L486 409 L486 408 L485 407 L485 406 L484 405 L484 404 L483 403 L483 402 L482 401 L482 400 L481 399 L481 398 L481 397 L480 396 L480 395 L479 394 L479 393 L478 392 L478 391 L477 390 L477 389 L476 388 L476 387 L475 386 L475 385 L474 384 L474 383 L474 382 L473 381 L473 380 L472 379 L472 378 L471 377 L471 376 L470 375 L470 374 L469 373 L469 372 L468 371 L468 370 L467 369 L467 368 L466 367 L466 366 L466 365 L465 364 L465 363 L464 362 L464 361 L463 360 L463 359 L462 358 L462 357 L461 356 L461 355 L460 354 L460 353 L459 352 L459 351 L458 350 L458 349 L458 348 L457 347 L457 346 L456 345 L456 344 L455 343 L455 342 L454 341 L454 340 L453 339 L453 338 L452 337 L452 336 L451 335 L451 334 L450 333 L450 332 L450 331 L449 330 L449 329 L448 328 L448 327 L447 326 L447 325 L446 324 L445 324 Z" fill="#27D61C" stroke="none"/>
</svg>

